<svg xmlns="http://www.w3.org/2000/svg" class="explicit_ic" width="14" height="14" viewBox="0 0 14 14"><g stroke="none" stroke-width="1" fill="none" fill-rule="evenodd"><g transform="translate(-449.000000, -930.000000)" class="svg_color" fill-rule="nonzero"><g transform="translate(20.000000, 856.000000)"><g transform="translate(429.000000, 74.000000)"><path d="M1,0 L13,0 C13.5522847,-1.01453063e-16 14,0.44771525 14,1 L14,13 C14,13.5522847 13.5522847,14 13,14 L1,14 C0.44771525,14 6.76353751e-17,13.5522847 0,13 L0,1 C-6.76353751e-17,0.44771525 0.44771525,1.01453063e-16 1,0 Z M10,11 L10,9.50074963 L6,9.50074963 L6,7.80338306 L9,7.80338306 L9,6.2 L6,6.2 L6,4.49925037 L10,4.49925037 L10,3 L4,3 L4,11 L10,11 Z"/></g></g></g></g></svg>