<svg xmlns="http://www.w3.org/2000/svg" width="20" height="16"><path class="svg_color"  fill= "white" fill-rule="evenodd" d="M18.67.296a7.744 7.744 0 01-2.503.978A3.885 3.885 0 0013.292 0C11.12 0 9.355 1.809 9.355 4.04c0 .316.033.623.101.919C6.182 4.79 3.28 3.184 1.336.737A4.112 4.112 0 00.803 2.77c0 1.4.695 2.637 1.753 3.362A3.867 3.867 0 01.77 5.628v.05c0 1.957 1.358 3.59 3.162 3.96a3.838 3.838 0 01-1.78.07c.502 1.605 1.956 2.773 3.68 2.805A7.779 7.779 0 010 14.187 10.965 10.965 0 006.038 16c7.247 0 11.208-6.154 11.208-11.492 0-.176-.003-.351-.01-.523a8.08 8.08 0 001.964-2.09 7.715 7.715 0 01-2.262.635A4.031 4.031 0 0018.67.296"/></svg>